Coordinates
version=1
nRows=12
nColumns=33
inDegrees=yes

Units are S.I. units (second, meters, Newtons, ...)
Angles are in degrees.

endheader
time	ground_thorax_rot_x	ground_thorax_rot_y	ground_thorax_rot_z	ground_thorax_tx	ground_thorax_ty	ground_thorax_tz	clav_prot_r	clav_elev_r	scapula_abduction_r	scapula_elevation_r	scapula_upward_rot_r	scapula_winging_r	shoulder_elv_r	plane_of_elev_r	axial_rot_r	elbow_flexion_r	pro_sup_r	wrist_flex_r	wrist_dev_r	clav_prot_l	clav_elev_l	scapula_abduction_l	scapula_elevation_l	scapula_upward_rot_l	scapula_winging_l	shoulder_elv_l	plane_of_elev_l	axial_rot_l	elbow_flexion_l	pro_sup_l	wrist_flex_l	wrist_dev_l
      3.54000000	     -1.88653648	      1.96133789	     11.88503181	     -0.11519566	      1.02859560	      0.01069224	     11.79801384	    -15.26554300	     22.56637079	     -9.31475956	      4.21948527	     -3.35214853	    -18.67790668	    -67.59484047	    113.63557995	    -73.28283529	   -172.55021667	     15.08865199	     -1.86616876	     17.28624191	     -6.62624957	    -25.08766986	    -14.08518827	    -33.02834467	      5.23058393	     58.33912505	    -13.84114253	      8.97220927	     51.79101852	     11.44146324	     19.26245146	    -10.99147120
      3.55000000	     -1.70571578	      1.86275399	     12.11243322	     -0.11593903	      1.02839803	      0.01063025	     11.56005177	    -14.69642491	     21.80602496	     -8.51416021	      3.47455625	     -3.36602215	    -19.51487747	    -68.35928696	    113.54664495	    -74.91209975	   -172.59755818	     15.85689313	     -2.15751064	     16.98677702	     -6.05173049	    -24.65468567	    -14.88161432	    -33.56518920	      4.95883906	     58.13613434	    -14.76784393	      8.70316777	     54.02511405	     11.15105218	     19.23780338	    -11.40359742
      3.56000000	     -1.67352277	      1.86142603	     12.13616264	     -0.11648313	      1.02905758	      0.01074728	     11.33230137	    -14.87000487	     20.81872841	     -8.20920422	      2.27157512	     -2.88305383	    -20.78861352	    -69.14434018	    112.37754940	    -76.46393881	   -172.68408372	     18.04845494	     -3.82616598	     16.46461453	     -5.83746187	    -23.76875713	    -15.15839627	    -33.66452149	      4.49089385	     58.58975699	    -16.52384980	      7.56963353	     56.35173756	     10.70603536	     18.93197783	    -11.83949392
      3.57000000	     -1.49666714	      1.66186200	     12.35192551	     -0.11701068	      1.02897651	      0.01056295	     11.00993882	    -14.33928715	     20.01176717	     -7.50155509	      1.69048484	     -2.83593783	    -21.73240000	    -70.07035724	    112.30531370	    -77.80212017	   -172.54813942	     18.95960486	     -4.21055749	     16.11407184	     -5.21006665	    -23.23698368	    -16.00458604	    -34.18732651	      4.15227137	     58.28599889	    -17.53892957	      7.49020031	     58.53490402	     10.41312272	     18.77895552	    -12.27233347
      3.58000000	     -1.49770848	      1.71099679	     12.25206966	     -0.11730608	      1.02978800	      0.01067188	     10.66497050	    -14.60432160	     18.90132521	     -7.31254687	      0.59244285	     -2.25108950	    -23.33393087	    -70.86848597	    110.77140872	    -78.93827027	   -171.89452216	     22.18403345	     -6.50244010	     15.48683081	     -4.92673732	    -22.11167182	    -16.20386252	    -33.96399097	      3.61494346	     58.82313726	    -19.44364939	      5.93399816	     60.65006475	     10.14329333	     17.91382273	    -12.97823324
      3.59000000	     -1.37644458	      1.61745423	     12.23283549	     -0.11727149	      1.03015631	      0.01057689	     10.16048697	    -14.36322453	     17.89932070	     -6.96304758	      0.23939528	     -1.96177914	    -25.37687757	    -71.93144143	    109.53587954	    -79.77215934	   -170.67288026	     25.15388365	     -8.33318309	     14.81798060	     -4.30661868	    -20.91548119	    -16.74503192	    -33.80286617	      3.04198957	     58.77295521	    -20.87602355	      4.93791724	     62.52883161	      9.94805273	     16.87841547	    -13.73857198
      3.60000000	     -1.27266054	      1.51001458	     12.33848331	     -0.11780316	      1.03035937	      0.01060563	     10.01817361	    -14.00965772	     17.32664152	     -6.34288329	     -0.48597682	     -1.90613913	    -26.96643331	    -72.49986060	    108.35268337	    -80.54249526	   -169.54297227	     27.27511591	     -9.62420937	     14.40686709	     -3.85797088	    -20.20906135	    -17.28358894	    -33.99416359	      2.65443335	     58.87823654	    -22.42561322	      4.10963150	     64.50502364	      9.91321766	     16.10182166	    -14.57083577
      3.61000000	     -1.27083032	      1.29828687	     12.20721485	     -0.11777494	      1.03094956	      0.01047121	      9.65535137	    -13.83375071	     16.68290661	     -6.15604105	     -0.57047970	     -1.73074312	    -29.50391961	    -73.28742585	    106.63205529	    -80.70112615	   -167.57788517	     30.61445777	    -11.80035163	     13.73749944	     -3.25893972	    -18.99013873	    -17.83148547	    -33.86966348	      2.06302867	     59.01490825	    -23.99415019	      3.25688011	     66.28770031	     10.20865447	     14.67672632	    -15.84477709
      3.62000000	     -1.04918047	      1.18814998	     12.21673364	     -0.11840729	      1.03059726	      0.01052276	      9.47940060	    -13.11453000	     16.10509535	     -5.23769564	     -1.19291291	     -1.83674519	    -30.13256461	    -73.82316958	    106.56735166	    -81.70968850	   -167.36415774	     31.13792565	    -11.95248861	     13.56354491	     -2.68690565	    -18.72786565	    -18.62007511	    -34.36129481	      1.82496471	     58.78939000	    -24.93334984	      3.06260056	     67.94885911	     10.11822372	     14.59904320	    -16.24733647
      3.63000000	     -1.02940056	      1.13101464	     12.27745055	     -0.11869854	      1.03137809	      0.01043253	      9.25199930	    -13.15046898	     15.45907786	     -5.03172230	     -1.77646667	     -1.55324406	    -32.63933981	    -74.53464592	    104.40077154	    -81.36000942	   -164.86202743	     35.60388296	    -14.77260012	     12.93392030	     -2.29981685	    -17.55355731	    -18.92471175	    -34.13749233	      1.28439500	     59.23446092	    -26.84192799	      1.39683732	     69.39041451	     11.18729079	     12.63158427	    -18.33123005
      3.64000000	     -0.76786764	      1.11774970	     12.27182035	     -0.11873589	      1.03116594	      0.01059940	      9.04288226	    -12.28883951	     15.12168039	     -4.26067874	     -1.72665845	     -1.80490095	    -35.42367070	    -74.86690175	    102.36626282	    -81.39877117	   -162.53098206	     38.17880189	    -16.54239572	     12.39206224	     -1.59099695	    -16.49643402	    -19.51385972	    -33.87119141	      0.78533964	     59.07885150	    -28.01428497	      0.19650137	     70.41063901	     11.92466693	     11.54078590	    -19.79198831
      3.65000000	     -0.50730325	      0.82298800	     12.35665875	     -0.11915301	      1.03170357	      0.01060538	      9.16567768	    -11.97306390	     15.15848393	     -3.81009719	     -2.10799441	     -1.94475779	    -38.10439749	    -75.35278061	     99.99405020	    -81.23710113	   -160.47370652	     40.70628773	    -18.39522408	     11.89221167	     -1.43154192	    -15.62253448	    -19.80043871	    -34.08708085	      0.32908582	     59.07343893	    -29.66890598	     -0.39725726	     71.54009381	     12.72390060	     10.34885334	    -21.38894452
